<svg xmlns="http://www.w3.org/2000/svg" xmlns:xlink="http://www.w3.org/1999/xlink" id="Layer_1" x="0" y="0" version="1.1" viewBox="0 0 114.4 122.88" xml:space="preserve" style="enable-background:new 0 0 114.4 122.88"><style type="text/css">.st0{fill:#dd0031}.st0,.st1,.st2{fill-rule:evenodd;clip-rule:evenodd}.st1{fill:#c3002f}.st2{fill:#fff}</style><g><polygon points="57.2 0 57.2 0 57.2 0 0 20.4 8.72 96.03 57.2 122.88 57.2 122.88 57.2 122.88 105.68 96.03 114.4 20.4 57.2 0" class="st0"/><polygon points="57.2 0 57.2 13.64 57.2 13.58 57.2 75.82 57.2 75.82 57.2 122.88 57.2 122.88 105.68 96.03 114.4 20.4 57.2 0" class="st1"/><path d="M57.2,13.58L21.44,93.76l0,0h13.33l0,0l7.19-17.94h30.35l7.19,17.94l0,0h13.33l0,0L57.2,13.58L57.2,13.58 L57.2,13.58L57.2,13.58L57.2,13.58L57.2,13.58z M67.65,64.76H46.76L57.2,39.63L67.65,64.76L67.65,64.76z" class="st2"/></g></svg>